<svg width="260" height="263" viewBox="0 0 260 263" fill="none" xmlns="http://www.w3.org/2000/svg">
<path d="M239.778 61.506C238.423 59.5419 236.243 58.3279 233.875 58.2256L87.0702 51.8246C82.858 51.6382 79.3382 54.9276 79.1581 59.1684C78.979 63.4078 82.2257 66.9899 86.4177 67.1718L223.284 73.1401L196.373 158.072H76.617L54.9812 38.908C54.5057 36.2963 52.7329 34.1176 50.2883 33.1474L14.8526 19.0656C10.9472 17.5189 6.54008 19.4592 5.00628 23.4049C3.4752 27.3528 5.39296 31.8133 9.29628 33.3648L40.8043 45.8855L62.8218 167.141C63.4855 170.786 66.6261 173.434 70.2917 173.434H73.9439L65.604 196.867C64.9059 198.83 65.1934 201.01 66.3815 202.715C67.5679 204.421 69.4971 205.436 71.5569 205.436H77.4067C73.7819 209.516 71.5569 214.889 71.5569 220.798C71.5569 233.505 81.7781 243.841 94.3371 243.841C106.896 243.841 117.117 233.505 117.117 220.798C117.117 214.89 114.892 209.516 111.268 205.436H160.935C157.308 209.516 155.084 214.889 155.084 220.798C155.084 233.505 165.303 243.841 177.864 243.841C190.427 243.841 200.645 233.505 200.645 220.798C200.645 214.89 198.42 209.516 194.796 205.436H201.91C205.406 205.436 208.238 202.57 208.238 199.035C208.238 195.499 205.405 192.634 201.91 192.634H80.5604L87.3936 173.432H201.91C205.212 173.432 208.134 171.274 209.14 168.096L240.779 68.2417C241.505 65.9627 241.133 63.4711 239.778 61.506ZM94.3377 231.042C88.754 231.042 84.2127 226.449 84.2127 220.801C84.2127 215.152 88.754 210.559 94.3377 210.559C99.9215 210.559 104.462 215.152 104.462 220.801C104.462 226.449 99.9215 231.042 94.3377 231.042ZM177.864 231.042C172.28 231.042 167.74 226.449 167.74 220.801C167.74 215.152 172.28 210.559 177.864 210.559C183.448 210.559 187.989 215.152 187.989 220.801C187.989 226.449 183.448 231.042 177.864 231.042Z" fill="#00DDB3"/>
<path d="M199.264 110.711C230.227 117.014 250.28 147.498 244.053 178.797C237.826 210.098 207.677 230.362 176.713 224.059C145.75 217.756 125.697 187.272 131.925 155.972C138.151 124.672 168.3 104.408 199.264 110.711Z" fill="#00DDB3"/>
<path d="M177.496 196.615L155.144 170.33L164.627 162.08L178.353 178.221L213.02 144.476L221.696 153.592L177.496 196.615Z" fill="#F3F6F8"/>
</svg>
