<svg width="365" height="410" viewBox="0 0 365 410" fill="none" xmlns="http://www.w3.org/2000/svg">
<g clip-path="url(#clip0_42_219)">
<path d="M282.652 227.362C282.652 295.012 233.829 349.854 173.604 349.854C113.378 349.854 64.6234 295.012 64.5554 227.362C64.4315 104.714 64.4171 104.459 173.604 104.869C233.829 105.096 282.652 159.711 282.652 227.362Z" fill="#F2F2F2"/>
<path d="M236.738 313.277H88.2908" stroke="#FEFEFF" stroke-width="0.6" stroke-miterlimit="10"/>
<path d="M236.738 308.524H88.2908" stroke="#FEFEFF" stroke-width="1.2" stroke-miterlimit="10"/>
<path d="M64.5536 227.362C64.5536 295.012 113.376 349.854 173.602 349.854C216.373 349.854 253.393 322.194 271.259 281.93C271.276 281.89 120.382 282.087 120.382 282.087C120.382 282.087 120.129 105.85 120.123 105.85C80.6789 105.902 70.8222 122.033 66.972 147.899C63.3762 172.058 64.5536 205.233 64.5536 227.362Z" fill="#E5E5E5"/>
<path d="M254.434 145.141C242.85 130.779 228.272 119.525 211.811 112.606H169.236V172.053H254.434V145.141Z" fill="#E5E5E5"/>
<path d="M158.65 270.716H92.3993V128.085H158.65V270.716Z" fill="#FEFEFF"/>
<path d="M154.778 110.691V253.505" stroke="#F2F2F2" stroke-width="0.905" stroke-miterlimit="10"/>
<path d="M96.2721 256.611V138.645" stroke="#F2F2F2" stroke-width="0.905" stroke-miterlimit="10"/>
<path d="M151.139 110.691V253.505" stroke="#F2F2F2" stroke-width="0.847" stroke-miterlimit="10"/>
<path d="M99.9099 256.611V129.948" stroke="#F2F2F2" stroke-width="0.847" stroke-miterlimit="10"/>
<path d="M150.978 213.036H99.9232" stroke="#F2F2F2" stroke-width="0.847" stroke-miterlimit="10"/>
<path d="M99.9232 155.491H150.978" stroke="#F2F2F2" stroke-width="0.847" stroke-miterlimit="10"/>
<path d="M150.978 207.414H99.9232" stroke="#F2F2F2" stroke-width="0.847" stroke-miterlimit="10"/>
<path d="M99.9232 149.869H150.978" stroke="#F2F2F2" stroke-width="0.847" stroke-miterlimit="10"/>
<path d="M158.587 233.778H105.131V127.777H158.587V233.778Z" fill="#F2F2F2"/>
<path d="M233.035 332.224H153.017V302.652H233.035V332.224Z" fill="#DFDDD7"/>
<g opacity="0.6">
<path d="M247.398 144.677C237.727 132.688 225.557 123.292 211.814 117.516H176.272V167.144H247.398V144.677Z" fill="#D5D5D5"/>
</g>
<path d="M237.848 271.668C241.491 258.67 246.093 250.415 247.487 247.166C248.879 243.916 248.236 235.251 259.487 216.836C270.737 198.422 277.058 193.487 277.058 193.487L282.416 198.542L278.13 192.043C278.13 192.043 286.059 183.377 290.451 182.896C294.845 182.415 303.309 183.618 299.237 195.292C295.166 206.967 282.844 229.353 282.844 229.353L275.236 224.78L281.987 230.918C281.987 230.918 276.044 251.56 267.58 258.421C259.115 265.281 254.629 278.522 252.736 282.911C250.827 287.341 246.07 290.878 241.731 289.535C237.19 288.131 235.961 278.402 237.848 271.668Z" fill="#E5E5E5"/>
<path d="M227.474 283.877C227.474 283.877 217.759 278.698 215.453 271.483C213.148 264.27 216.606 245.588 216.606 245.588L226.816 254.651L217.759 243.738C217.759 243.738 221.546 237.449 222.699 222.467C223.851 207.483 236.202 192.686 236.366 192.131C236.531 191.576 239.66 173.818 244.6 162.351C249.539 150.882 255.303 138.489 263.537 142.374C271.771 146.258 283.956 159.576 269.794 175.299C255.633 191.021 251.681 212.848 251.681 212.848C251.681 212.848 240.977 207.853 241.8 208.038C242.624 208.223 250.857 215.067 250.857 215.067L246.081 231.715C246.081 231.715 234.226 224.501 234.884 224.871C235.543 225.24 245.094 235.044 245.094 235.044C245.094 235.044 239.027 246.842 236.366 258.721C233.993 269.314 235.11 280.01 233.403 281.842C229.78 285.727 227.474 283.877 227.474 283.877Z" fill="#DFDDD7"/>
<path d="M224.726 288.418C224.726 288.418 218.62 291.918 210.669 262.185C207.467 250.211 203.362 240.753 200.273 234.013C195.691 224.018 193.339 220.005 199.466 222.639C209.726 227.049 226.798 257.924 227.012 273.469C227.226 289.015 224.726 288.418 224.726 288.418Z" fill="#E5E5E5"/>
<path d="M240.7 301.951C240.903 297.011 241.262 292.073 241.861 287.165C242.494 282.265 243.331 277.392 244.43 272.587C245.516 267.78 246.928 263.062 248.615 258.473C250.311 253.889 252.289 249.426 254.619 245.197C256.974 240.989 259.541 236.966 262.108 232.944C264.69 228.934 267.286 224.938 269.952 221C272.615 217.061 275.264 213.11 277.999 209.232C280.739 205.359 283.456 201.467 286.216 197.613C283.607 201.599 280.956 205.546 278.328 209.512C275.661 213.444 273.07 217.444 270.471 221.433C267.889 225.437 265.275 229.413 262.73 233.444C260.188 237.474 257.646 241.515 255.332 245.693C250.687 254.043 247.374 263.274 245.051 272.774C242.716 282.286 241.414 292.096 240.7 301.951Z" fill="#FEFEFF"/>
<path d="M234.521 309.354C232.57 303.206 230.953 296.919 229.656 290.548C228.399 284.166 227.461 277.701 226.888 271.191C226.581 267.938 226.417 264.669 226.302 261.4C226.235 258.129 226.191 254.855 226.307 251.585C226.384 248.312 226.604 245.047 226.867 241.787C227.179 238.533 227.537 235.282 228.04 232.056C230.043 219.158 233.634 206.554 238.833 194.836C240.13 191.907 241.515 189.025 243.003 186.214C244.484 183.399 246.039 180.632 247.702 177.949C251.031 172.586 254.678 167.479 258.618 162.681C254.781 167.582 251.247 172.777 248.042 178.208C246.423 180.912 244.902 183.688 243.462 186.514C242.013 189.335 240.67 192.222 239.415 195.155C234.364 206.873 230.794 219.386 228.867 232.215C228.355 235.417 227.988 238.645 227.665 241.878C227.39 245.116 227.158 248.361 227.07 251.614C226.942 254.865 226.973 258.121 227.026 261.376C227.139 264.627 227.265 267.88 227.529 271.124C228.022 277.613 228.887 284.067 230.056 290.451C231.216 296.838 232.699 303.155 234.521 309.354Z" fill="#FEFEFF"/>
<path d="M227.725 310.048C227.272 306.894 226.862 303.736 226.342 300.598C225.865 297.453 225.337 294.32 224.764 291.196C223.619 284.951 222.367 278.729 220.877 272.577C219.445 266.408 217.791 260.308 216.011 254.252C215.133 251.22 214.2 248.207 213.167 245.235C212.186 242.242 211.177 239.259 210.219 236.249C212.434 242.126 214.759 247.972 216.623 254.017C218.534 260.041 220.188 266.165 221.688 272.335C223.115 278.527 224.383 284.767 225.396 291.06C225.892 294.208 226.352 297.362 226.745 300.527C227.13 303.693 227.46 306.868 227.725 310.048Z" fill="#FEFEFF"/>
<path d="M244.759 337.66H223.612L222.351 297.117H246.019L244.759 337.66Z" fill="#F6F7F6"/>
<path d="M246.351 304.465H222.02L221.41 296.603H246.961L246.351 304.465Z" fill="#E5E5E5"/>
<path d="M119.256 128.459V287.563C119.256 287.563 115.97 281.413 112.411 284.18C108.852 286.948 108.305 290.638 104.746 288.793C101.187 286.948 103.924 283.565 99.5433 283.565C95.1633 283.565 96.532 289.101 93.5202 289.101C90.509 289.101 87.7715 282.642 87.7715 282.642V128.459H119.256Z" fill="#DFDDD7"/>
<path d="M99.7518 129.434H98.5086L97.2516 284.342C97.2516 284.342 97.8937 283.47 99.7905 283.577C101.548 283.675 102.068 284.546 102.068 284.546L99.7518 129.434Z" fill="#F2F2F2"/>
<path d="M114.782 129.606L109.372 129.576L111.948 284.527C111.948 284.527 113.18 283.306 114.59 283.452C115.762 283.575 116.862 284.546 116.862 284.546L114.782 129.606Z" fill="#F2F2F2"/>
<path d="M161.608 122.509H84.4872V128.76H161.608V122.509Z" fill="#DDDDDD"/>
<path d="M-0.000732422 -2.47955e-05H364.999V410H-0.000732422V-2.47955e-05ZM-0.000732422 410H364.999V-2.47955e-05H-0.000732422V410ZM193.798 211.204C193.798 226.332 180.005 238.595 162.991 238.595C145.978 238.595 132.186 226.332 132.186 211.204C132.186 196.077 145.978 183.815 162.991 183.815C180.005 183.815 193.798 196.077 193.798 211.204Z" fill="black"/>
<path d="M-0.000610352 0.000727654H364.999V410.001H-0.000610352V0.000727654ZM-0.000610352 410.001H364.999V0.000727654H-0.000610352V410.001ZM134.726 201.961C134.918 201.281 133.107 173.139 132.069 166.95C131.999 166.533 132.479 166.275 132.762 166.577L150.86 187.437L134.726 201.961Z" fill="black"/>
<path d="M0 0.000821114H365V410.001H0V0.000821114ZM0 410.001H365V0.000821114H0V410.001ZM176.745 188.814C176.745 188.814 190.586 172.898 194.332 169.145C194.611 168.865 195.048 169.13 194.997 169.546L191.85 202.18L176.745 188.814Z" fill="black"/>
<path d="M-0.000610352 0.000727654H364.999V410.001H-0.000610352V0.000727654ZM-0.000610352 410.001H364.999V0.000727654H-0.000610352V410.001ZM159.354 207.236C159.354 211.477 156.292 214.917 152.517 214.917C148.741 214.917 145.681 211.477 145.681 207.236C145.681 202.995 148.741 199.558 152.517 199.558C156.292 199.558 159.354 202.995 159.354 207.236Z" fill="#FEFEFF"/>
<path d="M-0.000610352 0.000727654H364.999V410.001H-0.000610352V0.000727654ZM-0.000610352 410.001H364.999V0.000727654H-0.000610352V410.001ZM184.863 207.236C184.863 211.477 181.801 214.917 178.025 214.917C174.25 214.917 171.189 211.477 171.189 207.236C171.189 202.995 174.25 199.558 178.025 199.558C181.801 199.558 184.863 202.995 184.863 207.236Z" fill="#FEFEFF"/>
<path d="M-0.000732422 5.72205e-06H364.999V410H-0.000732422V5.72205e-06ZM-0.000732422 410H364.999V5.72205e-06H-0.000732422V410ZM174.214 236.423C174.214 236.423 190.033 259.723 191.112 316.549C191.258 324.259 198.912 332.27 196.998 337.043C189.387 356.027 159.687 352.186 148.621 347.786C143.063 345.575 134.736 346.261 134.112 339.675C133.928 337.725 138.155 329.236 138.007 326.786C137.279 314.713 137.388 296.826 142.185 275.618C143.669 269.058 148.173 245.157 155.725 237.885C158.46 235.252 174.214 236.423 174.214 236.423Z" fill="black"/>
<path d="M-0.000732422 5.72205e-06H364.999V410H-0.000732422V5.72205e-06ZM-0.000732422 410H364.999V5.72205e-06H-0.000732422V410ZM179.46 220.282C179.792 220.235 212.847 224.75 212.847 224.75L179.46 220.282Z" fill="black"/>
<path d="M-0.000732422 5.72205e-06H364.999V410H-0.000732422V5.72205e-06ZM-0.000732422 410H364.999V5.72205e-06H-0.000732422V410ZM179.457 220.246C182.28 220.358 185.056 220.699 187.849 220.997C190.637 221.321 193.41 221.778 196.188 222.193C201.745 223.01 207.3 223.85 212.852 224.714C212.869 224.716 212.881 224.736 212.879 224.756C212.877 224.775 212.86 224.789 212.843 224.786L196.126 222.772C193.34 222.436 190.55 222.141 187.773 221.722C185 221.291 182.216 220.847 179.465 220.319L179.449 220.316C179.433 220.313 179.422 220.295 179.424 220.276C179.427 220.259 179.441 220.246 179.457 220.246Z" fill="black"/>
<path d="M-0.000610352 0.000727654H364.999V410.001H-0.000610352V0.000727654ZM-0.000610352 410.001H364.999V0.000727654H-0.000610352V410.001ZM178.97 222.6L211.239 230.676L178.97 222.6Z" fill="black"/>
<path d="M-0.000610352 0.000727654H364.999V410.001H-0.000610352V0.000727654ZM-0.000610352 410.001H364.999V0.000727654H-0.000610352V410.001ZM178.977 222.564C181.707 223.033 184.406 223.655 187.108 224.263C189.806 224.889 192.48 225.642 195.162 226.354C200.527 227.763 205.889 229.191 211.247 230.64C211.264 230.645 211.275 230.665 211.27 230.685C211.266 230.705 211.25 230.716 211.233 230.712C205.834 229.469 200.439 228.207 195.048 226.924C192.352 226.289 189.646 225.696 186.967 224.976C184.291 224.238 181.612 223.513 178.963 222.636C178.946 222.63 178.936 222.61 178.941 222.591C178.946 222.574 178.961 222.562 178.977 222.564Z" fill="black"/>
<path d="M0 0.000796318H365V410.001H0V0.000796318ZM0 410.001H365V0.000796318H0V410.001ZM178.012 223.938C178.254 223.971 208.535 236.18 208.535 236.18L178.012 223.938Z" fill="black"/>
<path d="M-0.000610352 0.000727654H364.999V410.001H-0.000610352V0.000727654ZM-0.000610352 410.001H364.999V0.000727654H-0.000610352V410.001ZM178.016 223.902C180.646 224.694 183.191 225.677 185.76 226.63C188.318 227.605 190.836 228.704 193.368 229.763C198.433 231.869 203.492 233.997 208.545 236.146C208.562 236.153 208.57 236.174 208.564 236.192C208.558 236.211 208.539 236.22 208.523 236.214L193.192 230.312C190.637 229.327 188.07 228.383 185.54 227.318C183.019 226.241 180.486 225.155 178.008 223.974L177.995 223.969C177.979 223.961 177.972 223.941 177.978 223.923C177.984 223.907 178.001 223.897 178.016 223.902Z" fill="black"/>
<path d="M0 0.000821114H365V410.001H0V0.000821114ZM0 410.001H365V0.000821114H0V410.001ZM146.808 224.471C146.476 224.406 113.112 227.733 113.112 227.733L146.808 224.471Z" fill="black"/>
<path d="M-0.000610352 0.000762939H364.999V410.001H-0.000610352V0.000762939ZM-0.000610352 410.001H364.999V0.000762939H-0.000610352V410.001ZM146.802 224.509C144.022 224.942 141.209 225.29 138.41 225.623C135.606 225.944 132.791 226.134 129.98 226.369L113.115 227.771C113.096 227.773 113.08 227.758 113.079 227.737C113.077 227.716 113.09 227.698 113.108 227.696L121.52 226.708L129.933 225.764C132.738 225.447 135.539 225.088 138.352 224.866C141.169 224.672 143.969 224.431 146.813 224.435C146.831 224.435 146.846 224.451 146.846 224.471C146.846 224.489 146.834 224.504 146.818 224.507L146.802 224.509Z" fill="black"/>
<path d="M-0.000732422 5.72205e-06H364.999V410H-0.000732422V5.72205e-06ZM-0.000732422 410H364.999V5.72205e-06H-0.000732422V410ZM147.245 226.982L114.587 234.168L147.245 226.982Z" fill="black"/>
<path d="M-0.000610352 0.000727654H364.999V410.001H-0.000610352V0.000727654ZM-0.000610352 410.001H364.999V0.000727654H-0.000610352V410.001ZM147.252 227.019C144.568 227.832 141.856 228.484 139.146 229.152C136.433 229.799 133.697 230.315 130.968 230.873L122.784 232.558L114.593 234.205C114.575 234.209 114.557 234.196 114.554 234.175C114.551 234.155 114.563 234.136 114.58 234.131L122.719 232.185L130.864 230.277C133.579 229.638 136.286 228.956 139.016 228.406C141.749 227.875 144.48 227.33 147.239 226.944C147.258 226.942 147.275 226.957 147.277 226.978C147.279 226.997 147.268 227.014 147.252 227.019Z" fill="black"/>
<path d="M-0.000732422 5.72205e-06H365V410H-0.000732422V5.72205e-06ZM-0.000732422 410H365V5.72205e-06H-0.000732422V410ZM148.177 228.462C147.934 228.486 117.176 240.2 117.176 240.2L148.177 228.462Z" fill="black"/>
<path d="M-0.000610352 0.000727654H364.999V410.001H-0.000610352V0.000727654ZM-0.000610352 410.001H364.999V0.000727654H-0.000610352V410.001ZM148.18 228.501C145.663 229.645 143.089 230.692 140.527 231.73C137.958 232.755 135.351 233.655 132.757 234.597L124.977 237.433L117.187 240.237C117.169 240.243 117.151 240.232 117.144 240.212C117.139 240.192 117.148 240.172 117.165 240.164L124.869 237.073L132.583 234.021C135.154 233.001 137.713 231.941 140.311 231.01C142.919 230.102 145.504 229.163 148.174 228.425C148.192 228.42 148.209 228.432 148.214 228.451C148.217 228.47 148.209 228.488 148.194 228.494L148.18 228.501Z" fill="black"/>
<path d="M-0.000610352 0.000727654H364.999V410.001H-0.000610352V0.000727654ZM-0.000610352 410.001H364.999V0.000727654H-0.000610352V410.001ZM166.414 221.418L162.158 216.637C161.398 215.784 161.936 214.323 163.012 214.323H169.095C170.118 214.323 170.677 215.663 170.022 216.545L166.414 221.418Z" fill="#383031"/>
<path d="M0 0H365V410H0V0ZM0 410H365V0H0V410ZM166.35 218.359V229.622L162.491 233.043L166.502 229.838L170.552 233.043L166.618 229.622L166.35 218.359Z" fill="#383031"/>
<path d="M177.459 241.039L155.38 242.904C154.334 242.993 153.423 242.111 153.344 240.935C153.265 239.76 154.05 238.736 155.096 238.647L177.174 236.782C178.221 236.694 179.133 237.575 179.211 238.75C179.29 239.926 178.505 240.95 177.459 241.039Z" fill="#BA0000"/>
<path d="M161.683 242.398C161.683 242.398 163.319 251.717 171.648 247.633C171.648 247.633 169.204 247.928 166.83 244.125C164.878 240.997 161.683 242.398 161.683 242.398Z" fill="#BA0000"/>
<path d="M161.862 242.291C161.862 242.291 161.917 249.385 157.146 251.274C152.376 253.164 149.26 250.035 149.26 250.035C149.26 250.035 152.321 251.553 154.306 248.394C156.291 245.233 158.415 240.866 161.862 242.291Z" fill="#BA0000"/>
<path d="M157.642 207.236C157.642 210.414 155.348 212.993 152.518 212.993C149.688 212.993 147.394 210.414 147.394 207.236C147.394 204.057 149.688 201.48 152.518 201.48C155.348 201.48 157.642 204.057 157.642 207.236Z" fill="#151112"/>
<path d="M183.195 207.236C183.195 210.414 180.901 212.993 178.071 212.993C175.242 212.993 172.948 210.414 172.948 207.236C172.948 204.057 175.242 201.48 178.071 201.48C180.901 201.48 183.195 204.057 183.195 207.236Z" fill="#151112"/>
<path d="M159.276 335.257C151.199 335.605 99.5145 345.571 92.7211 314.633C88.8902 297.187 96.8876 290.438 104.673 290.719C112.789 291.012 111.755 297.175 109.847 303.277C109.054 305.813 111.56 311.763 116.907 303.77C122.603 295.253 116.834 279.225 102.035 280.611C86.6565 282.052 78.0846 299.136 84.4256 321.334C93.8885 354.459 150.255 349.609 163.87 345.947C165.323 345.555 166.622 339.763 164.932 337.147C163.535 334.985 160.253 335.215 159.276 335.257Z" fill="black"/>
</g>
<defs>
<clipPath id="clip0_42_219">
<rect width="365" height="410" fill="white"/>
</clipPath>
</defs>
</svg>
