<svg width="157" height="185" viewBox="0 0 157 185" fill="none" xmlns="http://www.w3.org/2000/svg">
<g filter="url(#filter0_d_4_4)">
<path d="M111.208 138.75C114.678 138.75 118.006 140.374 120.46 143.265C122.913 146.157 124.292 150.078 124.292 154.167C124.292 158.255 122.913 162.177 120.46 165.068C118.006 167.959 114.678 169.583 111.208 169.583C107.738 169.583 104.411 167.959 101.957 165.068C99.5034 162.177 98.125 158.255 98.125 154.167C98.125 145.61 103.947 138.75 111.208 138.75ZM6.54169 15.4167H27.9329L34.0821 30.8333H130.833C132.568 30.8333 134.232 31.6455 135.459 33.091C136.686 34.5366 137.375 36.4973 137.375 38.5417C137.375 39.8521 137.048 41.1625 136.59 42.3958L113.171 92.2687C110.947 96.9708 106.629 100.208 101.723 100.208H52.9875L47.1 112.773L46.9038 113.698C46.9038 114.209 47.0761 114.699 47.3828 115.061C47.6895 115.422 48.1054 115.625 48.5392 115.625H124.292V131.042H45.7917C42.3218 131.042 38.994 129.417 36.5404 126.526C34.0868 123.635 32.7084 119.714 32.7084 115.625C32.7084 112.927 33.2971 110.383 34.2784 108.225L43.175 89.3396L19.625 30.8333H6.54169V15.4167ZM45.7917 138.75C49.2616 138.75 52.5894 140.374 55.043 143.265C57.4966 146.157 58.875 150.078 58.875 154.167C58.875 158.255 57.4966 162.177 55.043 165.068C52.5894 167.959 49.2616 169.583 45.7917 169.583C42.3218 169.583 38.994 167.959 36.5404 165.068C34.0868 162.177 32.7084 158.255 32.7084 154.167C32.7084 145.61 38.5304 138.75 45.7917 138.75ZM104.667 84.7917L122.853 46.25H40.1659L55.6042 84.7917H104.667Z" fill="#9D7EED"/>
</g>
<defs>
<filter id="filter0_d_4_4" x="-4" y="0" width="165" height="193" filterUnits="userSpaceOnUse" color-interpolation-filters="sRGB">
<feFlood flood-opacity="0" result="BackgroundImageFix"/>
<feColorMatrix in="SourceAlpha" type="matrix" values="0 0 0 0 0 0 0 0 0 0 0 0 0 0 0 0 0 0 127 0" result="hardAlpha"/>
<feOffset dy="4"/>
<feGaussianBlur stdDeviation="2"/>
<feComposite in2="hardAlpha" operator="out"/>
<feColorMatrix type="matrix" values="0 0 0 0 0 0 0 0 0 0 0 0 0 0 0 0 0 0 0.25 0"/>
<feBlend mode="normal" in2="BackgroundImageFix" result="effect1_dropShadow_4_4"/>
<feBlend mode="normal" in="SourceGraphic" in2="effect1_dropShadow_4_4" result="shape"/>
</filter>
</defs>
</svg>
